<?xml version="1.0" encoding="utf-8"?>
<!-- Generator: Adobe Illustrator 16.0.0, SVG Export Plug-In . SVG Version: 6.00 Build 0)  -->
<!DOCTYPE svg PUBLIC "-//W3C//DTD SVG 1.1//EN" "http://www.w3.org/Graphics/SVG/1.1/DTD/svg11.dtd">
<svg version="1.1" id="레이어_1" xmlns="http://www.w3.org/2000/svg" xmlns:xlink="http://www.w3.org/1999/xlink" x="0px"
	 y="0px" width="421.5px" height="108.016px" viewBox="0 0 421.5 108.016" enable-background="new 0 0 421.5 108.016"
	 xml:space="preserve">
<g>
	<linearGradient id="XMLID_2_" gradientUnits="userSpaceOnUse" x1="-0.6357" y1="54.0078" x2="417.8545" y2="54.0078">
		<stop  offset="0" style="stop-color:#2EB2E8"/>
		<stop  offset="1" style="stop-color:#3571B9"/>
	</linearGradient>
	<path id="XMLID_16_" fill="url(#XMLID_2_)" d="M167.896,13.394c20.084,0,36.754,14.538,40.063,33.646h-0.329h-79.797
		C131.146,27.932,147.815,13.394,167.896,13.394 M113.816,54.008c0,29.827,24.211,54.008,54.08,54.008
		c24.373,0,44.97-16.101,51.732-38.229h-14.246c-6.163,14.593-20.629,24.834-37.486,24.834c-20.081,0-36.75-14.537-40.063-33.646
		h79.797h0.329l-0.003,0.021h13.559c0.294-2.29,0.462-4.62,0.462-6.988C221.976,24.181,197.768,0,167.896,0
		C138.027,0,113.816,24.181,113.816,54.008"/>
	<linearGradient id="XMLID_3_" gradientUnits="userSpaceOnUse" x1="-0.6357" y1="54.0078" x2="417.8545" y2="54.0078">
		<stop  offset="0" style="stop-color:#2EB2E8"/>
		<stop  offset="1" style="stop-color:#3571B9"/>
	</linearGradient>
	<path id="XMLID_13_" fill="url(#XMLID_3_)" d="M326.545,54.008c0-22.432,18.21-40.614,40.669-40.614
		c22.463,0,40.672,18.182,40.672,40.614c0,22.429-18.209,40.613-40.672,40.613C344.755,94.621,326.545,76.437,326.545,54.008
		 M313.135,54.008c0,29.827,24.214,54.008,54.079,54.008c29.872,0,54.083-24.181,54.083-54.008S397.086,0,367.214,0
		C337.349,0,313.135,24.181,313.135,54.008"/>
	<linearGradient id="XMLID_4_" gradientUnits="userSpaceOnUse" x1="-0.6357" y1="54.0078" x2="417.8545" y2="54.0078">
		<stop  offset="0" style="stop-color:#2EB2E8"/>
		<stop  offset="1" style="stop-color:#3571B9"/>
	</linearGradient>
	<polygon id="XMLID_12_" fill="url(#XMLID_4_)" points="82.709,0 82.709,47.04 13.952,47.04 13.952,0 0,0 0,108.016 13.952,108.016 
		13.952,60.976 82.709,60.976 82.709,108.016 96.665,108.016 96.665,0 	"/>
	<linearGradient id="XMLID_5_" gradientUnits="userSpaceOnUse" x1="-0.6357" y1="54.0454" x2="417.8545" y2="54.0454">
		<stop  offset="0" style="stop-color:#2EB2E8"/>
		<stop  offset="1" style="stop-color:#3571B9"/>
	</linearGradient>
	<rect id="XMLID_11_" x="240.312" y="0.075" fill="url(#XMLID_5_)" width="13.952" height="107.94"/>
	<linearGradient id="XMLID_6_" gradientUnits="userSpaceOnUse" x1="-0.6357" y1="54.0454" x2="417.8545" y2="54.0454">
		<stop  offset="0" style="stop-color:#2EB2E8"/>
		<stop  offset="1" style="stop-color:#3571B9"/>
	</linearGradient>
	<rect id="XMLID_10_" x="280.959" y="0.075" fill="url(#XMLID_6_)" width="13.952" height="107.94"/>
</g>
</svg>
